<?xml version="1.0" encoding="UTF-8" standalone="no"?>
<!DOCTYPE svg PUBLIC "-//W3C//DTD SVG 1.1//EN"
 "http://www.w3.org/Graphics/SVG/1.1/DTD/svg11.dtd">
<!-- Generated by graphviz version 12.1.1 (20240910.0053)
 -->
<!-- Pages: 1 -->
<svg width="1923pt" height="1166pt"
 viewBox="0.00 0.00 1922.65 1165.78" xmlns="http://www.w3.org/2000/svg" xmlns:xlink="http://www.w3.org/1999/xlink">
<g id="graph0" class="graph" transform="scale(1 1) rotate(0) translate(4 1161.78)">
<polygon fill="white" stroke="none" points="-4,4 -4,-1161.78 1918.65,-1161.78 1918.65,4 -4,4"/>
<!-- 0 -->
<g id="node1" class="node">
<title>0</title>
<ellipse fill="none" stroke="black" cx="989.98" cy="-321.88" rx="27" ry="18"/>
<text text-anchor="middle" x="989.98" y="-317.68" font-family="Times,serif" font-size="14.00">inn</text>
</g>
<!-- 1 -->
<g id="node2" class="node">
<title>1</title>
<ellipse fill="none" stroke="black" cx="1163.27" cy="-183.89" rx="63.6" ry="18"/>
<text text-anchor="middle" x="1163.27" y="-179.69" font-family="Times,serif" font-size="14.00">maples_room</text>
</g>
<!-- 0&#45;&#45;1 -->
<g id="edge1" class="edge">
<title>0&#45;&#45;1</title>
<path fill="none" stroke="black" d="M1007.55,-307.89C1039.47,-282.47 1106.89,-228.78 1141.61,-201.14"/>
</g>
<!-- 11 -->
<g id="node12" class="node">
<title>11</title>
<ellipse fill="none" stroke="black" cx="895.1" cy="-132.51" rx="59.85" ry="18"/>
<text text-anchor="middle" x="895.1" y="-128.31" font-family="Times,serif" font-size="14.00">balors_room</text>
</g>
<!-- 0&#45;&#45;11 -->
<g id="edge8" class="edge">
<title>0&#45;&#45;11</title>
<path fill="none" stroke="black" d="M981.23,-304.4C963.29,-268.6 922.52,-187.23 904.25,-150.77"/>
</g>
<!-- 30 -->
<g id="node30" class="node">
<title>30</title>
<ellipse fill="none" stroke="black" cx="1077.82" cy="-109.74" rx="59.31" ry="18"/>
<text text-anchor="middle" x="1077.82" y="-105.54" font-family="Times,serif" font-size="14.00">reinas_room</text>
</g>
<!-- 0&#45;&#45;30 -->
<g id="edge27" class="edge">
<title>0&#45;&#45;30</title>
<path fill="none" stroke="black" d="M997.32,-304.16C1013.81,-264.32 1053.67,-168.07 1070.32,-127.86"/>
</g>
<!-- 42 -->
<g id="node39" class="node">
<title>42</title>
<ellipse fill="none" stroke="black" cx="1032.37" cy="-156.66" rx="51.81" ry="18"/>
<text text-anchor="middle" x="1032.37" y="-152.46" font-family="Times,serif" font-size="14.00">lucs_room</text>
</g>
<!-- 0&#45;&#45;42 -->
<g id="edge37" class="edge">
<title>0&#45;&#45;42</title>
<path fill="none" stroke="black" d="M994.6,-303.88C1002.73,-272.18 1019.52,-206.74 1027.69,-174.88"/>
</g>
<!-- 48 -->
<g id="node45" class="node">
<title>48</title>
<ellipse fill="none" stroke="black" cx="958.58" cy="-211.36" rx="104.37" ry="18"/>
<text text-anchor="middle" x="958.58" y="-207.16" font-family="Times,serif" font-size="14.00">jo_and_hemlocks_room</text>
</g>
<!-- 0&#45;&#45;48 -->
<g id="edge47" class="edge">
<title>0&#45;&#45;48</title>
<path fill="none" stroke="black" d="M984.94,-304.12C979.14,-283.74 969.69,-250.48 963.82,-229.81"/>
</g>
<!-- 2 -->
<g id="node3" class="node">
<title>2</title>
<ellipse fill="none" stroke="black" cx="913.56" cy="-555.72" rx="30.35" ry="18"/>
<text text-anchor="middle" x="913.56" y="-551.52" font-family="Times,serif" font-size="14.00">town</text>
</g>
<!-- 2&#45;&#45;0 -->
<g id="edge44" class="edge">
<title>2&#45;&#45;0</title>
<path fill="none" stroke="black" d="M919.43,-537.76C933.66,-494.23 969.85,-383.49 984.09,-339.9"/>
</g>
<!-- 3 -->
<g id="node4" class="node">
<title>3</title>
<ellipse fill="none" stroke="black" cx="778.88" cy="-806.66" rx="42.14" ry="18"/>
<text text-anchor="middle" x="778.88" y="-802.46" font-family="Times,serif" font-size="14.00">narrows</text>
</g>
<!-- 2&#45;&#45;3 -->
<g id="edge2" class="edge">
<title>2&#45;&#45;3</title>
<path fill="none" stroke="black" d="M900.37,-572.41C871.51,-617.56 804.98,-741.64 784.59,-788.49"/>
</g>
<!-- 2&#45;&#45;3 -->
<g id="edge19" class="edge">
<title>2&#45;&#45;3</title>
<path fill="none" stroke="black" d="M907.86,-573.87C887.6,-620.44 821.67,-743.45 792.56,-789.22"/>
</g>
<!-- 8 -->
<g id="node9" class="node">
<title>8</title>
<ellipse fill="none" stroke="black" cx="679.15" cy="-295.48" rx="87.74" ry="18"/>
<text text-anchor="middle" x="679.15" y="-291.28" font-family="Times,serif" font-size="14.00">manor_house_entry</text>
</g>
<!-- 2&#45;&#45;8 -->
<g id="edge39" class="edge">
<title>2&#45;&#45;8</title>
<path fill="none" stroke="black" d="M899.25,-539.83C858,-494.04 739.02,-361.95 695.42,-313.54"/>
</g>
<!-- 10 -->
<g id="node11" class="node">
<title>10</title>
<ellipse fill="none" stroke="black" cx="1203.21" cy="-665.4" rx="86.65" ry="18"/>
<text text-anchor="middle" x="1203.21" y="-661.2" font-family="Times,serif" font-size="14.00">general_store_store</text>
</g>
<!-- 2&#45;&#45;10 -->
<g id="edge7" class="edge">
<title>2&#45;&#45;10</title>
<path fill="none" stroke="black" d="M939.52,-565.55C989.58,-584.51 1099.87,-626.27 1160.76,-649.32"/>
</g>
<!-- 13 -->
<g id="node14" class="node">
<title>13</title>
<ellipse fill="none" stroke="black" cx="1138.1" cy="-460.29" rx="60.37" ry="18"/>
<text text-anchor="middle" x="1138.1" y="-456.09" font-family="Times,serif" font-size="14.00">eastern_road</text>
</g>
<!-- 2&#45;&#45;13 -->
<g id="edge22" class="edge">
<title>2&#45;&#45;13</title>
<path fill="none" stroke="black" d="M941.98,-548.59C985.63,-533.17 1068.5,-498 1111.21,-476.82"/>
</g>
<!-- 2&#45;&#45;13 -->
<g id="edge45" class="edge">
<title>2&#45;&#45;13</title>
<path fill="none" stroke="black" d="M934.25,-542.32C970.5,-523.76 1046.12,-491.2 1094.38,-473.02"/>
</g>
<!-- 19 -->
<g id="node19" class="node">
<title>19</title>
<ellipse fill="none" stroke="black" cx="685.26" cy="-719.92" rx="77.01" ry="18"/>
<text text-anchor="middle" x="685.26" y="-715.72" font-family="Times,serif" font-size="14.00">blacksmith_store</text>
</g>
<!-- 2&#45;&#45;19 -->
<g id="edge13" class="edge">
<title>2&#45;&#45;19</title>
<path fill="none" stroke="black" d="M894.1,-569.72C852.48,-599.66 754.92,-669.83 709.42,-702.55"/>
</g>
<!-- 23 -->
<g id="node23" class="node">
<title>23</title>
<ellipse fill="none" stroke="black" cx="865.31" cy="-442.81" rx="27" ry="18"/>
<text text-anchor="middle" x="865.31" y="-438.61" font-family="Times,serif" font-size="14.00">mill</text>
</g>
<!-- 2&#45;&#45;23 -->
<g id="edge17" class="edge">
<title>2&#45;&#45;23</title>
<path fill="none" stroke="black" d="M905.92,-537.83C896.83,-516.56 881.77,-481.31 872.76,-460.25"/>
</g>
<!-- 25 -->
<g id="node25" class="node">
<title>25</title>
<ellipse fill="none" stroke="black" cx="1144.34" cy="-568.59" rx="45.36" ry="18"/>
<text text-anchor="middle" x="1144.34" y="-564.39" font-family="Times,serif" font-size="14.00">clinic_f1</text>
</g>
<!-- 2&#45;&#45;25 -->
<g id="edge26" class="edge">
<title>2&#45;&#45;25</title>
<path fill="none" stroke="black" d="M944.21,-557.43C983.93,-559.65 1053.53,-563.53 1099.28,-566.08"/>
</g>
<!-- 31 -->
<g id="node31" class="node">
<title>31</title>
<ellipse fill="none" stroke="black" cx="1091.43" cy="-761.38" rx="50.19" ry="18"/>
<text text-anchor="middle" x="1091.43" y="-757.18" font-family="Times,serif" font-size="14.00">bathhouse</text>
</g>
<!-- 2&#45;&#45;31 -->
<g id="edge28" class="edge">
<title>2&#45;&#45;31</title>
<path fill="none" stroke="black" d="M927.52,-571.86C960.36,-609.83 1042.3,-704.58 1076.29,-743.88"/>
</g>
<!-- 39 -->
<g id="node36" class="node">
<title>39</title>
<ellipse fill="none" stroke="black" cx="748.9" cy="-493.88" rx="63.06" ry="18"/>
<text text-anchor="middle" x="748.9" y="-489.68" font-family="Times,serif" font-size="14.00">celines_room</text>
</g>
<!-- 2&#45;&#45;39 -->
<g id="edge34" class="edge">
<title>2&#45;&#45;39</title>
<path fill="none" stroke="black" d="M887.47,-545.92C860.63,-535.84 818.51,-520.03 787.75,-508.47"/>
</g>
<!-- 4 -->
<g id="node5" class="node">
<title>4</title>
<ellipse fill="none" stroke="black" cx="528.81" cy="-791.99" rx="65.74" ry="18"/>
<text text-anchor="middle" x="528.81" y="-787.79" font-family="Times,serif" font-size="14.00">haydens_farm</text>
</g>
<!-- 3&#45;&#45;4 -->
<g id="edge5" class="edge">
<title>3&#45;&#45;4</title>
<path fill="none" stroke="black" d="M736.74,-804.19C697.49,-801.89 638.4,-798.42 593.23,-795.77"/>
</g>
<!-- 12 -->
<g id="node13" class="node">
<title>12</title>
<ellipse fill="none" stroke="black" cx="653.14" cy="-985.12" rx="65.21" ry="18"/>
<text text-anchor="middle" x="653.14" y="-980.92" font-family="Times,serif" font-size="14.00">western_ruins</text>
</g>
<!-- 3&#45;&#45;12 -->
<g id="edge9" class="edge">
<title>3&#45;&#45;12</title>
<path fill="none" stroke="black" d="M766.6,-824.1C742.68,-858.04 690.1,-932.66 665.85,-967.08"/>
</g>
<!-- 15 -->
<g id="node16" class="node">
<title>15</title>
<ellipse fill="none" stroke="black" cx="906.73" cy="-1001.1" rx="68.43" ry="18"/>
<text text-anchor="middle" x="906.73" y="-996.9" font-family="Times,serif" font-size="14.00">museum_entry</text>
</g>
<!-- 3&#45;&#45;15 -->
<g id="edge25" class="edge">
<title>3&#45;&#45;15</title>
<path fill="none" stroke="black" d="M790.45,-824.26C814.67,-861.09 870.47,-945.95 894.9,-983.12"/>
</g>
<!-- 24 -->
<g id="node24" class="node">
<title>24</title>
<ellipse fill="none" stroke="black" cx="739.03" cy="-1049.88" rx="72.18" ry="18"/>
<text text-anchor="middle" x="739.03" y="-1045.68" font-family="Times,serif" font-size="14.00">errols_bedroom</text>
</g>
<!-- 3&#45;&#45;24 -->
<g id="edge18" class="edge">
<title>3&#45;&#45;24</title>
<path fill="none" stroke="black" d="M775.89,-824.94C768.48,-870.12 749.39,-986.66 742.01,-1031.72"/>
</g>
<!-- 44 -->
<g id="node41" class="node">
<title>44</title>
<ellipse fill="none" stroke="black" cx="782.5" cy="-966.46" rx="40.01" ry="18"/>
<text text-anchor="middle" x="782.5" y="-962.26" font-family="Times,serif" font-size="14.00">summit</text>
</g>
<!-- 3&#45;&#45;44 -->
<g id="edge40" class="edge">
<title>3&#45;&#45;44</title>
<path fill="none" stroke="black" d="M779.3,-824.99C779.99,-855.82 781.39,-917.66 782.09,-948.34"/>
</g>
<!-- 5 -->
<g id="node6" class="node">
<title>5</title>
<ellipse fill="none" stroke="black" cx="297.15" cy="-973.74" rx="70.04" ry="18"/>
<text text-anchor="middle" x="297.15" y="-969.54" font-family="Times,serif" font-size="14.00">haydens_house</text>
</g>
<!-- 4&#45;&#45;5 -->
<g id="edge3" class="edge">
<title>4&#45;&#45;5</title>
<path fill="none" stroke="black" d="M506.59,-809.42C462.32,-844.16 363.52,-921.67 319.3,-956.37"/>
</g>
<!-- 6 -->
<g id="node7" class="node">
<title>6</title>
<ellipse fill="none" stroke="black" cx="270.54" cy="-800.16" rx="33.55" ry="18"/>
<text text-anchor="middle" x="270.54" y="-795.96" font-family="Times,serif" font-size="14.00">beach</text>
</g>
<!-- 4&#45;&#45;6 -->
<g id="edge21" class="edge">
<title>4&#45;&#45;6</title>
<path fill="none" stroke="black" d="M463.3,-794.07C412.64,-795.67 344.56,-797.82 304.34,-799.09"/>
</g>
<!-- 22 -->
<g id="node22" class="node">
<title>22</title>
<ellipse fill="none" stroke="black" cx="99.14" cy="-1139.78" rx="81.84" ry="18"/>
<text text-anchor="middle" x="99.14" y="-1135.58" font-family="Times,serif" font-size="14.00">haydens_bedroom</text>
</g>
<!-- 5&#45;&#45;22 -->
<g id="edge16" class="edge">
<title>5&#45;&#45;22</title>
<path fill="none" stroke="black" d="M276.33,-991.2C238.4,-1023 158.44,-1090.06 120.28,-1122.06"/>
</g>
<!-- 7 -->
<g id="node8" class="node">
<title>7</title>
<ellipse fill="none" stroke="black" cx="69.5" cy="-825.62" rx="69.5" ry="18"/>
<text text-anchor="middle" x="69.5" y="-821.42" font-family="Times,serif" font-size="14.00">terithias_house</text>
</g>
<!-- 6&#45;&#45;7 -->
<g id="edge4" class="edge">
<title>6&#45;&#45;7</title>
<path fill="none" stroke="black" d="M237.79,-804.31C209.31,-807.91 167.24,-813.24 132.29,-817.67"/>
</g>
<!-- 9 -->
<g id="node10" class="node">
<title>9</title>
<ellipse fill="none" stroke="black" cx="531.68" cy="-24.72" rx="81.83" ry="18"/>
<text text-anchor="middle" x="531.68" y="-20.52" font-family="Times,serif" font-size="14.00">adelines_bedroom</text>
</g>
<!-- 8&#45;&#45;9 -->
<g id="edge6" class="edge">
<title>8&#45;&#45;9</title>
<path fill="none" stroke="black" d="M669.25,-277.3C642.38,-227.97 568.36,-92.06 541.54,-42.82"/>
</g>
<!-- 18 -->
<g id="node18" class="node">
<title>18</title>
<ellipse fill="none" stroke="black" cx="439.14" cy="-149.57" rx="71.65" ry="18"/>
<text text-anchor="middle" x="439.14" y="-145.37" font-family="Times,serif" font-size="14.00">elsies_bedroom</text>
</g>
<!-- 8&#45;&#45;18 -->
<g id="edge12" class="edge">
<title>8&#45;&#45;18</title>
<path fill="none" stroke="black" d="M650.68,-278.17C604.24,-249.94 512.77,-194.33 466.83,-166.41"/>
</g>
<!-- 21 -->
<g id="node21" class="node">
<title>21</title>
<ellipse fill="none" stroke="black" cx="592.69" cy="-193.93" rx="70.02" ry="18"/>
<text text-anchor="middle" x="592.69" y="-189.73" font-family="Times,serif" font-size="14.00">adelines_office</text>
</g>
<!-- 8&#45;&#45;21 -->
<g id="edge15" class="edge">
<title>8&#45;&#45;21</title>
<path fill="none" stroke="black" d="M663.7,-277.33C647.96,-258.84 623.71,-230.36 608.02,-211.93"/>
</g>
<!-- 29 -->
<g id="node29" class="node">
<title>29</title>
<ellipse fill="none" stroke="black" cx="474.19" cy="-70.33" rx="77.55" ry="18"/>
<text text-anchor="middle" x="474.19" y="-66.13" font-family="Times,serif" font-size="14.00">eilands_bedroom</text>
</g>
<!-- 8&#45;&#45;29 -->
<g id="edge24" class="edge">
<title>8&#45;&#45;29</title>
<path fill="none" stroke="black" d="M662.73,-277.44C624.25,-235.18 528.68,-130.19 490.41,-88.15"/>
</g>
<!-- 35 -->
<g id="node33" class="node">
<title>35</title>
<ellipse fill="none" stroke="black" cx="703.75" cy="-18" rx="65.73" ry="18"/>
<text text-anchor="middle" x="703.75" y="-13.8" font-family="Times,serif" font-size="14.00">eilands_office</text>
</g>
<!-- 8&#45;&#45;35 -->
<g id="edge31" class="edge">
<title>8&#45;&#45;35</title>
<path fill="none" stroke="black" d="M680.77,-277.28C685.22,-227 697.67,-86.63 702.13,-36.27"/>
</g>
<!-- 41 -->
<g id="node38" class="node">
<title>41</title>
<ellipse fill="none" stroke="black" cx="337.11" cy="-211.96" rx="117.79" ry="18"/>
<text text-anchor="middle" x="337.11" y="-207.76" font-family="Times,serif" font-size="14.00">manor_house_dining_room</text>
</g>
<!-- 8&#45;&#45;41 -->
<g id="edge36" class="edge">
<title>8&#45;&#45;41</title>
<path fill="none" stroke="black" d="M621.9,-281.5C560.76,-266.57 464.11,-242.97 400.65,-227.48"/>
</g>
<!-- 27 -->
<g id="node27" class="node">
<title>27</title>
<ellipse fill="none" stroke="black" cx="1524.38" cy="-782.29" rx="89.33" ry="18"/>
<text text-anchor="middle" x="1524.38" y="-778.09" font-family="Times,serif" font-size="14.00">general_store_home</text>
</g>
<!-- 10&#45;&#45;27 -->
<g id="edge29" class="edge">
<title>10&#45;&#45;27</title>
<path fill="none" stroke="black" d="M1246.86,-681.28C1308.09,-703.57 1418.85,-743.88 1480.31,-766.25"/>
</g>
<!-- 14 -->
<g id="node15" class="node">
<title>14</title>
<ellipse fill="none" stroke="black" cx="1012.71" cy="-658.64" rx="80.77" ry="18"/>
<text text-anchor="middle" x="1012.71" y="-654.44" font-family="Times,serif" font-size="14.00">landens_house_f1</text>
</g>
<!-- 13&#45;&#45;14 -->
<g id="edge10" class="edge">
<title>13&#45;&#45;14</title>
<path fill="none" stroke="black" d="M1126.75,-478.24C1102.94,-515.91 1047.99,-602.83 1024.13,-640.59"/>
</g>
<!-- 17 -->
<g id="node17" class="node">
<title>17</title>
<ellipse fill="none" stroke="black" cx="1286.64" cy="-327.63" rx="37.31" ry="18"/>
<text text-anchor="middle" x="1286.64" y="-323.43" font-family="Times,serif" font-size="14.00">aldaria</text>
</g>
<!-- 13&#45;&#45;17 -->
<g id="edge11" class="edge">
<title>13&#45;&#45;17</title>
<path fill="none" stroke="black" d="M1157.52,-442.95C1186.46,-417.1 1240.5,-368.84 1268.61,-343.73"/>
</g>
<!-- 34 -->
<g id="node32" class="node">
<title>34</title>
<ellipse fill="none" stroke="black" cx="1356.19" cy="-382.18" rx="59.31" ry="18"/>
<text text-anchor="middle" x="1356.19" y="-377.98" font-family="Times,serif" font-size="14.00">deep_woods</text>
</g>
<!-- 13&#45;&#45;34 -->
<g id="edge30" class="edge">
<title>13&#45;&#45;34</title>
<path fill="none" stroke="black" d="M1177.34,-446.23C1216.95,-432.05 1277.76,-410.27 1317.26,-396.12"/>
</g>
<!-- 36 -->
<g id="node34" class="node">
<title>36</title>
<ellipse fill="none" stroke="black" cx="947.34" cy="-819.62" rx="80.77" ry="18"/>
<text text-anchor="middle" x="947.34" y="-815.42" font-family="Times,serif" font-size="14.00">landens_house_f2</text>
</g>
<!-- 14&#45;&#45;36 -->
<g id="edge32" class="edge">
<title>14&#45;&#45;36</title>
<path fill="none" stroke="black" d="M1005.34,-676.79C992.78,-707.71 967.39,-770.24 954.78,-801.28"/>
</g>
<!-- 20 -->
<g id="node20" class="node">
<title>20</title>
<ellipse fill="none" stroke="black" cx="496.97" cy="-931.73" rx="96.32" ry="18"/>
<text text-anchor="middle" x="496.97" y="-927.53" font-family="Times,serif" font-size="14.00">blacksmith_room_left</text>
</g>
<!-- 19&#45;&#45;20 -->
<g id="edge14" class="edge">
<title>19&#45;&#45;20</title>
<path fill="none" stroke="black" d="M669.21,-737.98C633.64,-778 548.52,-873.74 512.98,-913.72"/>
</g>
<!-- 46 -->
<g id="node43" class="node">
<title>46</title>
<ellipse fill="none" stroke="black" cx="425.93" cy="-836" rx="101.69" ry="18"/>
<text text-anchor="middle" x="425.93" y="-831.8" font-family="Times,serif" font-size="14.00">blacksmith_room_right</text>
</g>
<!-- 19&#45;&#45;46 -->
<g id="edge42" class="edge">
<title>19&#45;&#45;46</title>
<path fill="none" stroke="black" d="M648.93,-736.18C600.14,-758.02 513.85,-796.65 464.13,-818.9"/>
</g>
<!-- 26 -->
<g id="node26" class="node">
<title>26</title>
<ellipse fill="none" stroke="black" cx="1351.57" cy="-626.44" rx="45.36" ry="18"/>
<text text-anchor="middle" x="1351.57" y="-622.24" font-family="Times,serif" font-size="14.00">clinic_f2</text>
</g>
<!-- 25&#45;&#45;26 -->
<g id="edge20" class="edge">
<title>25&#45;&#45;26</title>
<path fill="none" stroke="black" d="M1181.87,-579.07C1219.31,-589.52 1276.51,-605.49 1313.97,-615.94"/>
</g>
<!-- 38 -->
<g id="node35" class="node">
<title>38</title>
<ellipse fill="none" stroke="black" cx="1358.48" cy="-529.04" rx="46.97" ry="18"/>
<text text-anchor="middle" x="1358.48" y="-524.84" font-family="Times,serif" font-size="14.00">clinic_b1</text>
</g>
<!-- 25&#45;&#45;38 -->
<g id="edge33" class="edge">
<title>25&#45;&#45;38</title>
<path fill="none" stroke="black" d="M1185.88,-560.92C1223.22,-554.02 1277.84,-543.93 1315.59,-536.96"/>
</g>
<!-- 28 -->
<g id="node28" class="node">
<title>28</title>
<ellipse fill="none" stroke="black" cx="1803.07" cy="-811.76" rx="68.43" ry="18"/>
<text text-anchor="middle" x="1803.07" y="-807.56" font-family="Times,serif" font-size="14.00">dells_bedroom</text>
</g>
<!-- 27&#45;&#45;28 -->
<g id="edge23" class="edge">
<title>27&#45;&#45;28</title>
<path fill="none" stroke="black" d="M1604.24,-790.73C1647.02,-795.26 1699.02,-800.76 1739.11,-805"/>
</g>
<!-- 43 -->
<g id="node40" class="node">
<title>43</title>
<ellipse fill="none" stroke="black" cx="1804.91" cy="-955.76" rx="109.73" ry="18"/>
<text text-anchor="middle" x="1804.91" y="-951.56" font-family="Times,serif" font-size="14.00">holt_and_noras_bedroom</text>
</g>
<!-- 27&#45;&#45;43 -->
<g id="edge38" class="edge">
<title>27&#45;&#45;43</title>
<path fill="none" stroke="black" d="M1552.56,-799.71C1606.19,-832.88 1722.39,-904.73 1776.33,-938.08"/>
</g>
<!-- 40 -->
<g id="node37" class="node">
<title>40</title>
<ellipse fill="none" stroke="black" cx="1284.99" cy="-915.03" rx="89.35" ry="18"/>
<text text-anchor="middle" x="1284.99" y="-910.83" font-family="Times,serif" font-size="14.00">bathhouse_bedroom</text>
</g>
<!-- 31&#45;&#45;40 -->
<g id="edge35" class="edge">
<title>31&#45;&#45;40</title>
<path fill="none" stroke="black" d="M1112.51,-778.12C1149.25,-807.28 1224.7,-867.17 1262.44,-897.13"/>
</g>
<!-- 47 -->
<g id="node44" class="node">
<title>47</title>
<ellipse fill="none" stroke="black" cx="1215.03" cy="-1002.52" rx="107.58" ry="18"/>
<text text-anchor="middle" x="1215.03" y="-998.32" font-family="Times,serif" font-size="14.00">bathhouse_change_room</text>
</g>
<!-- 31&#45;&#45;47 -->
<g id="edge43" class="edge">
<title>31&#45;&#45;47</title>
<path fill="none" stroke="black" d="M1100.72,-779.51C1123.62,-824.19 1182.61,-939.28 1205.63,-984.19"/>
</g>
<!-- 45 -->
<g id="node42" class="node">
<title>45</title>
<ellipse fill="none" stroke="black" cx="728.92" cy="-651.95" rx="29.27" ry="18"/>
<text text-anchor="middle" x="728.92" y="-647.75" font-family="Times,serif" font-size="14.00">farm</text>
</g>
<!-- 45&#45;&#45;2 -->
<g id="edge46" class="edge">
<title>45&#45;&#45;2</title>
<path fill="none" stroke="black" d="M751.56,-640.15C786.91,-621.73 854.82,-586.34 890.45,-567.77"/>
</g>
<!-- 45&#45;&#45;4 -->
<g id="edge41" class="edge">
<title>45&#45;&#45;4</title>
<path fill="none" stroke="black" d="M709.37,-665.64C672.59,-691.38 593.2,-746.93 553.07,-775.01"/>
</g>
</g>
</svg>
